<svg xmlns="http://www.w3.org/2000/svg" xmlns:v="https://svgstorm.com"
viewBox = "0 0 472 473"
width="472"
height="473">
<g fill="None" fill-opacity="0.0" stroke="#000000" stroke-opacity="0.00" stroke-width="0.3"><path d="
M 0.00 473.00 
L 472.00 473.00
L 472.00 0.00
L 0.00 0.00
L 0.00 473.00
M 317.00 52.00 
C 320.78 54.78 323.24 57.24 326.00 61.00
C 330.70 67.38 332.86 73.05 334.00 81.00
C 334.70 85.87 334.70 91.20 334.00 96.00
C 333.73 97.85 333.33 99.65 333.00 101.00
C 332.72 102.14 332.25 103.21 332.00 104.00
C 331.16 106.64 330.90 112.39 328.08 114.08 C 325.25 115.76 324.68 122.29 324.00 123.00
C 325.66 123.75 325.78 123.57 327.00 125.00
C 327.22 125.26 327.80 125.68 328.00 126.00
C 331.37 127.58 332.16 128.99 334.00 132.00
C 341.03 143.47 329.97 143.75 321.92 147.92 C 313.87 152.08 309.88 157.36 303.00 163.00
C 301.75 164.02 300.18 164.99 299.00 166.00
C 296.37 168.26 294.45 169.92 291.00 171.00
C 289.23 172.08 286.96 174.92 283.00 175.00
C 284.36 175.85 282.97 176.91 283.00 177.00
C 284.26 180.59 291.91 181.74 294.30 184.70 C 296.68 187.67 302.73 186.91 305.00 191.00
C 295.89 201.69 278.06 204.34 263.00 202.00
C 261.70 201.74 260.68 200.89 259.00 200.00
C 255.00 198.60 249.26 195.57 246.25 192.75 C 243.24 189.93 237.59 182.87 238.00 184.00
C 237.83 185.95 236.70 189.09 236.00 191.00
C 235.63 193.88 235.50 193.40 235.00 195.00
C 232.17 233.49 221.09 272.66 228.00 311.00
C 241.66 300.36 254.31 288.05 271.00 283.00
C 270.36 280.93 272.79 276.12 273.00 274.00
C 273.77 266.19 274.28 257.29 279.00 251.00
C 279.62 249.78 280.41 248.11 281.00 247.00
C 293.53 223.63 313.14 212.45 341.00 210.00
C 346.00 209.56 351.65 208.11 357.00 209.00
C 358.55 209.26 360.14 210.74 362.00 210.00
C 360.79 230.86 354.81 252.05 340.00 267.00
C 337.57 269.96 334.76 271.66 332.00 274.00
C 320.48 288.30 296.03 290.65 280.00 286.00
C 278.51 285.57 277.45 285.77 276.00 285.00
C 274.96 287.20 272.89 286.90 271.00 288.00
C 262.58 295.33 253.73 297.83 246.25 306.25 C 238.77 314.66 234.92 319.78 229.00 328.00
C 231.43 337.68 231.48 349.79 234.98 359.02 C 238.48 368.26 238.94 377.18 243.33 385.67 C 247.72 394.17 248.63 401.80 253.97 410.03 C 259.32 418.25 259.20 426.73 267.25 433.75 C 275.30 440.76 267.99 453.01 259.75 444.25 C 251.52 435.48 251.00 429.89 245.74 421.26 C 240.49 412.62 238.02 404.96 234.08 395.92 C 230.13 386.89 227.32 377.56 225.01 367.99 C 222.70 358.42 221.38 348.24 214.00 341.00
C 210.28 337.20 203.41 332.56 198.75 329.25 C 194.10 325.93 187.13 320.19 182.00 319.00
C 180.74 318.71 179.26 319.31 178.00 319.00
C 177.46 318.87 176.47 318.26 176.00 318.00
C 174.03 317.82 171.39 318.07 170.00 318.00
C 153.77 317.14 139.62 312.18 128.00 303.00
C 124.78 300.46 122.83 298.33 120.00 295.00
C 119.04 293.87 118.77 293.15 118.00 292.00
C 117.31 290.97 116.65 290.09 116.00 289.00
C 107.03 273.85 100.95 255.90 101.00 238.00
C 119.55 235.01 138.28 239.59 154.00 249.00
C 155.36 249.83 156.73 251.12 158.00 252.00
C 159.59 252.15 158.94 252.39 160.00 253.00
C 163.98 255.27 166.31 258.56 169.00 262.00
C 179.69 269.36 182.56 287.09 184.00 299.00
C 184.61 304.03 185.60 311.94 186.00 316.00
C 191.81 315.54 198.28 322.45 203.25 324.75 C 208.21 327.06 214.66 332.94 218.00 335.00
C 213.12 323.40 216.47 307.71 215.00 295.00 C 213.53 282.29 214.56 265.93 215.00 253.00 C 215.44 240.07 217.35 230.36 218.99 217.99 C 220.63 205.62 222.63 193.56 227.00 182.00
C 224.07 184.24 210.70 182.06 205.75 181.80 C 200.81 181.55 190.38 176.16 186.00 173.00
C 182.59 170.54 179.60 166.65 177.00 163.00
C 175.28 160.60 171.57 155.47 170.23 152.77 C 168.89 150.07 163.55 144.43 166.00 142.00
C 167.83 140.19 168.50 141.85 170.00 142.00
C 175.24 141.65 188.41 147.02 192.00 144.00
C 191.84 143.56 192.00 143.00 192.00 143.00
C 180.04 124.02 185.62 98.57 172.00 80.00
C 179.41 76.32 187.69 73.77 196.00 76.00
C 194.67 65.22 197.92 55.84 203.00 47.00
C 206.27 41.31 209.96 37.56 215.00 34.00
C 220.62 30.02 226.63 26.20 234.01 26.01 C 241.39 25.81 251.39 25.30 257.68 29.32 C 263.97 33.35 268.58 37.49 276.00 38.00 C 283.42 38.51 289.20 45.10 297.00 44.00 C 304.80 42.90 311.61 48.03 317.00 52.00 Z"/>
</g>
<g fill="None" fill-opacity="0.0" stroke="#AB0609" stroke-opacity="0.97" stroke-width="0.3"><path d="
M 215.00 34.00 
C 213.20 36.10 208.97 41.85 206.00 45.00
C 200.99 60.04 213.26 80.75 224.00 91.00
C 215.16 75.08 226.48 48.97 247.00 52.00
C 243.65 58.13 241.18 64.66 242.00 72.00
C 254.03 50.92 295.05 60.43 285.00 88.00
C 291.40 85.52 292.32 85.53 296.92 78.92 C 301.52 72.31 304.84 79.19 304.00 86.00 C 303.16 92.81 305.07 99.50 300.25 104.25 C 295.42 108.99 294.91 112.86 288.00 114.00
C 305.48 118.37 319.63 102.96 333.00 94.00
C 332.84 90.32 333.79 84.54 334.00 81.00
C 332.86 73.05 330.70 67.38 326.00 61.00
C 324.05 59.33 318.56 53.82 317.00 52.00
C 311.61 48.03 304.80 42.90 297.00 44.00 C 289.20 45.10 283.42 38.51 276.00 38.00 C 268.58 37.49 263.97 33.35 257.68 29.32 C 251.39 25.30 241.39 25.81 234.01 26.01 C 226.63 26.20 220.62 30.02 215.00 34.00 Z"/>
</g>
<g fill="None" fill-opacity="0.0" stroke="#942125" stroke-opacity="0.31" stroke-width="0.3"><path d="
M 203.00 47.00 
C 203.78 46.31 205.07 45.98 206.00 45.00
C 208.97 41.85 213.20 36.10 215.00 34.00
C 209.96 37.56 206.27 41.31 203.00 47.00 Z"/>
</g>
<g fill="None" fill-opacity="0.0" stroke="#F02A32" stroke-opacity="0.98" stroke-width="0.3"><path d="
M 203.00 47.00 
C 197.92 55.84 194.67 65.22 196.00 76.00
C 197.24 76.14 196.58 73.77 198.00 74.00
C 202.65 98.37 234.20 102.90 244.00 124.00
C 235.48 128.46 228.07 136.42 226.00 146.00
C 244.41 107.21 295.03 142.44 321.00 119.00
C 323.38 119.39 319.94 121.67 322.00 122.00
C 322.35 122.48 323.50 122.78 324.00 123.00
C 324.68 122.29 325.25 115.76 328.08 114.08 C 330.90 112.39 331.16 106.64 332.00 104.00
C 332.04 103.67 330.70 102.23 331.01 100.99 C 331.33 99.74 333.41 100.21 333.00 101.00
C 333.33 99.65 333.73 97.85 334.00 96.00
C 333.79 95.33 333.05 95.17 333.00 94.00
C 319.63 102.96 305.48 118.37 288.00 114.00
C 294.91 112.86 295.42 108.99 300.25 104.25 C 305.07 99.50 303.16 92.81 304.00 86.00 C 304.84 79.19 301.52 72.31 296.92 78.92 C 292.32 85.53 291.40 85.52 285.00 88.00
C 295.05 60.43 254.03 50.92 242.00 72.00
C 241.18 64.66 243.65 58.13 247.00 52.00
C 226.48 48.97 215.16 75.08 224.00 91.00
C 213.26 80.75 200.99 60.04 206.00 45.00
C 205.07 45.98 203.78 46.31 203.00 47.00
M 277.00 92.00 
C 272.92 91.11 269.17 87.94 265.00 90.00
C 271.43 95.11 279.08 93.07 287.00 95.00 C 294.92 96.93 286.69 106.34 281.30 109.30 C 275.92 112.27 268.67 115.06 262.32 117.32 C 255.97 119.58 246.85 122.79 244.23 114.77 C 241.61 106.75 235.12 106.64 233.08 98.92 C 231.04 91.20 229.61 82.57 233.00 75.00
C 244.61 77.47 253.46 91.18 266.00 89.00
C 262.14 85.14 256.06 84.96 252.00 81.00
C 255.25 73.94 262.18 65.20 270.25 69.75 C 278.31 74.31 281.75 83.60 277.00 92.00 Z"/>
</g>
<g fill="None" fill-opacity="0.0" stroke="#870F11" stroke-opacity="0.37" stroke-width="0.3"><path d="
M 326.00 61.00 
C 323.24 57.24 320.78 54.78 317.00 52.00
C 318.56 53.82 324.05 59.33 326.00 61.00 Z"/>
</g>
<g fill="None" fill-opacity="0.0" stroke="#C40A10" stroke-opacity="1.00" stroke-width="0.3"><path d="
M 277.00 92.00 
C 281.75 83.60 278.31 74.31 270.25 69.75 C 262.18 65.20 255.25 73.94 252.00 81.00
C 256.06 84.96 262.14 85.14 266.00 89.00
C 253.46 91.18 244.61 77.47 233.00 75.00
C 229.61 82.57 231.04 91.20 233.08 98.92 C 235.12 106.64 241.61 106.75 244.23 114.77 C 246.85 122.79 255.97 119.58 262.32 117.32 C 268.67 115.06 275.92 112.27 281.30 109.30 C 286.69 106.34 294.92 96.93 287.00 95.00 C 279.08 93.07 271.43 95.11 265.00 90.00
C 269.17 87.94 272.92 91.11 277.00 92.00 Z"/>
</g>
<g fill="None" fill-opacity="0.0" stroke="#C00B10" stroke-opacity="0.98" stroke-width="0.3"><path d="
M 196.00 76.00 
C 187.69 73.77 179.41 76.32 172.00 80.00
C 185.62 98.57 180.04 124.02 192.00 143.00
C 193.90 143.79 194.76 145.67 196.00 147.00
C 206.77 158.54 212.63 165.70 227.68 172.32 C 242.72 178.95 260.40 177.77 277.00 176.00
C 278.96 175.79 280.27 176.04 282.00 175.00
C 282.73 172.08 289.29 171.53 291.00 171.00
C 294.45 169.92 296.37 168.26 299.00 166.00
C 299.28 165.63 299.25 165.41 300.25 163.25 C 301.25 161.08 304.02 162.55 303.00 163.00
C 309.88 157.36 313.87 152.08 321.92 147.92 C 329.97 143.75 341.03 143.47 334.00 132.00
C 333.47 131.42 329.45 128.35 328.00 126.00
C 327.80 125.68 327.22 125.26 327.00 125.00
C 325.35 125.10 323.55 123.96 322.00 122.00
C 319.94 121.67 323.38 119.39 321.00 119.00
C 295.03 142.44 244.41 107.21 226.00 146.00
C 228.07 136.42 235.48 128.46 244.00 124.00
C 234.20 102.90 202.65 98.37 198.00 74.00
C 196.58 73.77 197.24 76.14 196.00 76.00 Z"/>
</g>
<g fill="None" fill-opacity="0.0" stroke="#891C1D" stroke-opacity="0.38" stroke-width="0.3"><path d="
M 333.00 94.00 
C 333.05 95.17 333.79 95.33 334.00 96.00
C 334.70 91.20 334.70 85.87 334.00 81.00
C 333.79 84.54 332.84 90.32 333.00 94.00 Z"/>
</g>
<g fill="None" fill-opacity="0.0" stroke="#C3373B" stroke-opacity="0.50" stroke-width="0.3"><path d="
M 332.00 104.00 
C 332.25 103.21 332.72 102.14 333.00 101.00
C 333.41 100.21 331.33 99.74 331.01 100.99 C 330.70 102.23 332.04 103.67 332.00 104.00 Z"/>
</g>
<g fill="None" fill-opacity="0.0" stroke="#991D20" stroke-opacity="0.38" stroke-width="0.3"><path d="
M 327.00 125.00 
C 325.78 123.57 325.66 123.75 324.00 123.00
C 323.50 122.78 322.35 122.48 322.00 122.00
C 323.55 123.96 325.35 125.10 327.00 125.00 Z"/>
</g>
<g fill="None" fill-opacity="0.0" stroke="#9B1629" stroke-opacity="0.27" stroke-width="0.3"><path d="
M 334.00 132.00 
C 332.16 128.99 331.37 127.58 328.00 126.00
C 329.45 128.35 333.47 131.42 334.00 132.00 Z"/>
</g>
<g fill="None" fill-opacity="0.0" stroke="#396239" stroke-opacity="0.31" stroke-width="0.3"><path d="
M 166.00 142.00 
C 167.13 144.06 169.29 142.05 170.00 142.00
C 168.50 141.85 167.83 140.19 166.00 142.00 Z"/>
</g>
<g fill="None" fill-opacity="0.0" stroke="#2D6B2B" stroke-opacity="0.91" stroke-width="0.3"><path d="
M 177.00 163.00 
C 177.43 163.38 180.18 165.49 182.25 166.75 C 184.32 168.01 185.58 172.53 186.00 173.00
C 190.38 176.16 200.81 181.55 205.75 181.80 C 210.70 182.06 224.07 184.24 227.00 182.00
C 227.39 180.97 228.95 176.48 230.00 176.00
C 226.28 174.59 221.74 172.06 218.00 170.00
C 214.78 168.23 212.59 166.42 210.00 164.00
C 204.86 159.20 200.66 153.99 196.00 149.00
C 194.35 147.23 192.89 146.45 192.00 144.00
C 188.41 147.02 175.24 141.65 170.00 142.00
C 169.29 142.05 167.13 144.06 166.00 142.00
C 163.55 144.43 168.89 150.07 170.23 152.77 C 171.57 155.47 175.28 160.60 177.00 163.00 Z"/>
</g>
<g fill="None" fill-opacity="0.0" stroke="#78331D" stroke-opacity="0.21" stroke-width="0.3"><path d="
M 192.00 144.00 
C 192.89 146.45 194.35 147.23 196.00 149.00
C 195.85 148.55 196.15 147.45 196.00 147.00
C 194.76 145.67 193.90 143.79 192.00 143.00
C 192.00 143.00 191.84 143.56 192.00 144.00 Z"/>
</g>
<g fill="None" fill-opacity="0.0" stroke="#802D16" stroke-opacity="1.00" stroke-width="0.3"><path d="
M 196.00 149.00 
C 200.66 153.99 204.86 159.20 210.00 164.00
C 212.64 165.97 215.48 168.25 218.00 170.00
C 221.74 172.06 226.28 174.59 230.00 176.00
C 232.34 176.89 235.49 177.44 238.00 178.00
C 248.01 180.22 258.71 180.64 269.00 179.00
C 271.75 178.56 274.22 178.41 277.00 178.00
C 277.20 177.90 276.76 176.18 277.00 176.00
C 260.40 177.77 242.72 178.95 227.68 172.32 C 212.63 165.70 206.77 158.54 196.00 147.00
C 196.15 147.45 195.85 148.55 196.00 149.00 Z"/>
</g>
<g fill="None" fill-opacity="0.0" stroke="#921615" stroke-opacity="0.35" stroke-width="0.3"><path d="
M 299.00 166.00 
C 300.18 164.99 301.75 164.02 303.00 163.00
C 304.02 162.55 301.25 161.08 300.25 163.25 C 299.25 165.41 299.28 165.63 299.00 166.00 Z"/>
</g>
<g fill="None" fill-opacity="0.0" stroke="#36663D" stroke-opacity="0.22" stroke-width="0.3"><path d="
M 177.00 163.00 
C 179.60 166.65 182.59 170.54 186.00 173.00
C 185.58 172.53 184.32 168.01 182.25 166.75 C 180.18 165.49 177.43 163.38 177.00 163.00 Z"/>
</g>
<g fill="None" fill-opacity="0.0" stroke="#64451F" stroke-opacity="1.00" stroke-width="0.3"><path d="
M 218.00 170.00 
C 215.48 168.25 212.64 165.97 210.00 164.00
C 212.59 166.42 214.78 168.23 218.00 170.00 Z"/>
</g>
<g fill="None" fill-opacity="0.0" stroke="#8F1815" stroke-opacity="0.37" stroke-width="0.3"><path d="
M 282.00 175.00 
C 282.37 174.78 283.00 175.00 283.00 175.00
C 286.96 174.92 289.23 172.08 291.00 171.00
C 289.29 171.53 282.73 172.08 282.00 175.00 Z"/>
</g>
<g fill="None" fill-opacity="0.0" stroke="#71341D" stroke-opacity="0.15" stroke-width="0.3"><path d="
M 277.00 176.00 
C 276.76 176.18 277.20 177.90 277.00 178.00
C 278.62 177.76 281.68 178.12 283.00 177.00
C 282.97 176.91 284.36 175.85 283.00 175.00
C 283.00 175.00 282.37 174.78 282.00 175.00
C 280.27 176.04 278.96 175.79 277.00 176.00 Z"/>
</g>
<g fill="None" fill-opacity="0.0" stroke="#1F2B0F" stroke-opacity="0.86" stroke-width="0.3"><path d="
M 227.00 182.00 
C 222.63 193.56 220.63 205.62 218.99 217.99 C 217.35 230.36 215.44 240.07 215.00 253.00 C 214.56 265.93 213.53 282.29 215.00 295.00 C 216.47 307.71 213.12 323.40 218.00 335.00
C 219.44 335.89 221.01 336.82 222.00 338.00
C 219.03 340.10 214.27 336.88 214.00 341.00
C 221.38 348.24 222.70 358.42 225.01 367.99 C 227.32 377.56 230.13 386.89 234.08 395.92 C 238.02 404.96 240.49 412.62 245.74 421.26 C 251.00 429.89 251.52 435.48 259.75 444.25 C 267.99 453.01 275.30 440.76 267.25 433.75 C 259.20 426.73 259.32 418.25 253.97 410.03 C 248.63 401.80 247.72 394.17 243.33 385.67 C 238.94 377.18 238.48 368.26 234.98 359.02 C 231.48 349.79 231.43 337.68 229.00 328.00
C 234.92 319.78 238.77 314.66 246.25 306.25 C 253.73 297.83 262.58 295.33 271.00 288.00
C 272.61 286.60 272.49 285.21 275.00 285.00
C 274.13 284.42 274.22 284.33 273.00 284.00
C 272.84 283.96 270.80 282.97 271.00 283.00
C 254.31 288.05 241.66 300.36 228.00 311.00
C 221.09 272.66 232.17 233.49 235.00 195.00
C 235.11 193.51 235.32 192.86 236.00 191.00
C 236.70 189.09 237.83 185.95 238.00 184.00
C 238.13 182.54 236.52 181.22 238.00 179.00
C 238.23 178.65 238.00 178.00 238.00 178.00
C 235.49 177.44 232.34 176.89 230.00 176.00
C 228.95 176.48 227.39 180.97 227.00 182.00 Z"/>
</g>
<g fill="None" fill-opacity="0.0" stroke="#2B6B2C" stroke-opacity="0.89" stroke-width="0.3"><path d="
M 277.00 178.00 
C 274.22 178.41 271.75 178.56 269.00 179.00
C 258.62 181.86 248.68 180.45 238.00 179.00
C 236.52 181.22 238.13 182.54 238.00 184.00
C 237.59 182.87 243.24 189.93 246.25 192.75 C 249.26 195.57 255.00 198.60 259.00 200.00
C 259.67 200.23 261.69 201.48 263.00 202.00
C 278.06 204.34 295.89 201.69 305.00 191.00
C 302.73 186.91 296.68 187.67 294.30 184.70 C 291.91 181.74 284.26 180.59 283.00 177.00
C 281.68 178.12 278.62 177.76 277.00 178.00 Z"/>
</g>
<g fill="None" fill-opacity="0.0" stroke="#555627" stroke-opacity="1.00" stroke-width="0.3"><path d="
M 238.00 179.00 
C 248.68 180.45 258.62 181.86 269.00 179.00
C 258.71 180.64 248.01 180.22 238.00 178.00
C 238.00 178.00 238.23 178.65 238.00 179.00 Z"/>
</g>
<g fill="None" fill-opacity="0.0" stroke="#10410C" stroke-opacity="0.17" stroke-width="0.3"><path d="
M 235.00 195.00 
C 235.50 193.40 235.63 193.88 236.00 191.00
C 235.32 192.86 235.11 193.51 235.00 195.00 Z"/>
</g>
<g fill="None" fill-opacity="0.0" stroke="#486B56" stroke-opacity="0.07" stroke-width="0.3"><path d="
M 259.00 200.00 
C 260.68 200.89 261.70 201.74 263.00 202.00
C 261.69 201.48 259.67 200.23 259.00 200.00 Z"/>
</g>
<g fill="None" fill-opacity="0.0" stroke="#336036" stroke-opacity="0.42" stroke-width="0.3"><path d="
M 341.00 210.00 
C 343.15 210.21 346.23 210.15 349.00 211.00 C 351.77 211.85 356.49 209.02 357.00 209.00
C 351.65 208.11 346.00 209.56 341.00 210.00 Z"/>
</g>
<g fill="None" fill-opacity="0.0" stroke="#286C2B" stroke-opacity="0.95" stroke-width="0.3"><path d="
M 341.00 210.00 
C 313.14 212.45 293.53 223.63 281.00 247.00
C 280.64 247.99 280.23 249.36 279.00 251.00
C 274.28 257.29 273.77 266.19 273.00 274.00
C 273.14 275.80 274.40 278.45 274.00 281.00
C 286.83 257.85 313.96 242.37 336.00 231.00
C 314.71 244.87 295.69 263.54 277.00 282.00
C 276.98 284.04 282.17 284.32 280.00 286.00
C 296.03 290.65 320.48 288.30 332.00 274.00
C 334.38 271.04 338.40 268.20 340.00 267.00
C 354.81 252.05 360.79 230.86 362.00 210.00
C 360.14 210.74 358.55 209.26 357.00 209.00
C 356.49 209.02 351.77 211.85 349.00 211.00 C 346.23 210.15 343.15 210.21 341.00 210.00 Z"/>
</g>
<g fill="None" fill-opacity="0.0" stroke="#134E13" stroke-opacity="0.99" stroke-width="0.3"><path d="
M 274.00 281.00 
C 273.96 281.26 272.97 283.95 273.00 284.00
C 274.22 284.33 274.13 284.42 275.00 285.00
C 275.50 284.96 276.00 285.00 276.00 285.00
C 277.45 285.77 278.51 285.57 280.00 286.00
C 282.17 284.32 276.98 284.04 277.00 282.00
C 295.69 263.54 314.71 244.87 336.00 231.00
C 313.96 242.37 286.83 257.85 274.00 281.00 Z"/>
</g>
<g fill="None" fill-opacity="0.0" stroke="#286C2B" stroke-opacity="0.95" stroke-width="0.3"><path d="
M 116.00 289.00 
C 116.51 289.53 117.54 290.62 118.00 292.00
C 118.77 293.15 119.04 293.87 120.00 295.00
C 122.18 296.59 126.49 300.99 128.00 303.00
C 139.62 312.18 153.77 317.14 170.00 318.00
C 172.74 317.87 173.50 316.62 176.00 318.00
C 176.47 318.26 177.46 318.87 178.00 319.00
C 177.94 319.02 180.23 315.63 180.00 315.00
C 165.33 295.90 147.86 277.21 129.00 262.00
C 151.72 273.11 173.66 293.42 183.00 317.00
C 183.40 316.80 184.00 317.00 184.00 317.00
C 181.32 311.72 183.62 303.93 184.00 299.00
C 182.56 287.09 179.69 269.36 169.00 262.00
C 166.25 260.11 161.64 255.88 160.00 253.00
C 158.94 252.39 159.59 252.15 158.00 252.00
C 155.84 251.79 154.64 249.59 154.00 249.00
C 138.28 239.59 119.55 235.01 101.00 238.00
C 100.95 255.90 107.03 273.85 116.00 289.00 Z"/>
</g>
<g fill="None" fill-opacity="0.0" stroke="#336332" stroke-opacity="0.35" stroke-width="0.3"><path d="
M 279.00 251.00 
C 280.23 249.36 280.64 247.99 281.00 247.00
C 280.41 248.11 279.62 249.78 279.00 251.00 Z"/>
</g>
<g fill="None" fill-opacity="0.0" stroke="#2B612E" stroke-opacity="0.34" stroke-width="0.3"><path d="
M 158.00 252.00 
C 156.73 251.12 155.36 249.83 154.00 249.00
C 154.64 249.59 155.84 251.79 158.00 252.00 Z"/>
</g>
<g fill="None" fill-opacity="0.0" stroke="#316132" stroke-opacity="0.35" stroke-width="0.3"><path d="
M 169.00 262.00 
C 166.31 258.56 163.98 255.27 160.00 253.00
C 161.64 255.88 166.25 260.11 169.00 262.00 Z"/>
</g>
<g fill="None" fill-opacity="0.0" stroke="#105413" stroke-opacity="0.99" stroke-width="0.3"><path d="
M 178.00 319.00 
C 179.26 319.31 180.74 318.71 182.00 319.00
C 182.41 318.78 182.72 317.14 183.00 317.00
C 173.66 293.42 151.72 273.11 129.00 262.00
C 147.86 277.21 165.33 295.90 180.00 315.00
C 180.23 315.63 177.94 319.02 178.00 319.00 Z"/>
</g>
<g fill="None" fill-opacity="0.0" stroke="#2C602D" stroke-opacity="0.30" stroke-width="0.3"><path d="
M 332.00 274.00 
C 334.76 271.66 337.57 269.96 340.00 267.00
C 338.40 268.20 334.38 271.04 332.00 274.00 Z"/>
</g>
<g fill="None" fill-opacity="0.0" stroke="#29562C" stroke-opacity="0.30" stroke-width="0.3"><path d="
M 271.00 283.00 
C 270.80 282.97 272.84 283.96 273.00 284.00
C 272.97 283.95 273.96 281.26 274.00 281.00
C 274.40 278.45 273.14 275.80 273.00 274.00
C 272.79 276.12 270.36 280.93 271.00 283.00 Z"/>
</g>
<g fill="None" fill-opacity="0.0" stroke="#173E11" stroke-opacity="0.24" stroke-width="0.3"><path d="
M 271.00 288.00 
C 272.89 286.90 274.96 287.20 276.00 285.00
C 276.00 285.00 275.50 284.96 275.00 285.00
C 272.49 285.21 272.61 286.60 271.00 288.00 Z"/>
</g>
<g fill="None" fill-opacity="0.0" stroke="#335D35" stroke-opacity="0.31" stroke-width="0.3"><path d="
M 116.00 289.00 
C 116.65 290.09 117.31 290.97 118.00 292.00
C 117.54 290.62 116.51 289.53 116.00 289.00 Z"/>
</g>
<g fill="None" fill-opacity="0.0" stroke="#305A33" stroke-opacity="0.25" stroke-width="0.3"><path d="
M 120.00 295.00 
C 122.83 298.33 124.78 300.46 128.00 303.00
C 126.49 300.99 122.18 296.59 120.00 295.00 Z"/>
</g>
<g fill="None" fill-opacity="0.0" stroke="#2F5C2E" stroke-opacity="0.31" stroke-width="0.3"><path d="
M 184.00 317.00 
C 185.19 317.08 185.49 316.04 186.00 316.00
C 185.60 311.94 184.61 304.03 184.00 299.00
C 183.62 303.93 181.32 311.72 184.00 317.00 Z"/>
</g>
<g fill="None" fill-opacity="0.0" stroke="#21230E" stroke-opacity="0.77" stroke-width="0.3"><path d="
M 184.00 317.00 
C 184.00 317.00 183.40 316.80 183.00 317.00
C 182.72 317.14 182.41 318.78 182.00 319.00
C 187.13 320.19 194.10 325.93 198.75 329.25 C 203.41 332.56 210.28 337.20 214.00 341.00
C 214.27 336.88 219.03 340.10 222.00 338.00
C 221.01 336.82 219.44 335.89 218.00 335.00
C 214.66 332.94 208.21 327.06 203.25 324.75 C 198.28 322.45 191.81 315.54 186.00 316.00
C 185.49 316.04 185.19 317.08 184.00 317.00 Z"/>
</g>
<g fill="None" fill-opacity="0.0" stroke="#2A662B" stroke-opacity="0.33" stroke-width="0.3"><path d="
M 170.00 318.00 
C 171.39 318.07 174.03 317.82 176.00 318.00
C 173.50 316.62 172.74 317.87 170.00 318.00 Z"/>
</g>
<g fill="#000000" fill-opacity="0.00" stroke="None">
<path d="
M 0.00 473.00 
L 472.00 473.00
L 472.00 0.00
L 0.00 0.00
L 0.00 473.00
M 317.00 52.00 
C 320.78 54.78 323.24 57.24 326.00 61.00
C 330.70 67.38 332.86 73.05 334.00 81.00
C 334.70 85.87 334.70 91.20 334.00 96.00
C 333.73 97.85 333.33 99.65 333.00 101.00
C 332.72 102.14 332.25 103.21 332.00 104.00
C 331.16 106.64 330.90 112.39 328.08 114.08 C 325.25 115.76 324.68 122.29 324.00 123.00
C 325.66 123.75 325.78 123.57 327.00 125.00
C 327.22 125.26 327.80 125.68 328.00 126.00
C 331.37 127.58 332.16 128.99 334.00 132.00
C 341.03 143.47 329.97 143.75 321.92 147.92 C 313.87 152.08 309.88 157.36 303.00 163.00
C 301.75 164.02 300.18 164.99 299.00 166.00
C 296.37 168.26 294.45 169.92 291.00 171.00
C 289.23 172.08 286.96 174.92 283.00 175.00
C 284.36 175.85 282.97 176.91 283.00 177.00
C 284.26 180.59 291.91 181.74 294.30 184.70 C 296.68 187.67 302.73 186.91 305.00 191.00
C 295.89 201.69 278.06 204.34 263.00 202.00
C 261.70 201.74 260.68 200.89 259.00 200.00
C 255.00 198.60 249.26 195.57 246.25 192.75 C 243.24 189.93 237.59 182.87 238.00 184.00
C 237.83 185.95 236.70 189.09 236.00 191.00
C 235.63 193.88 235.50 193.40 235.00 195.00
C 232.17 233.49 221.09 272.66 228.00 311.00
C 241.66 300.36 254.31 288.05 271.00 283.00
C 270.36 280.93 272.79 276.12 273.00 274.00
C 273.77 266.19 274.28 257.29 279.00 251.00
C 279.62 249.78 280.41 248.11 281.00 247.00
C 293.53 223.63 313.14 212.45 341.00 210.00
C 346.00 209.56 351.65 208.11 357.00 209.00
C 358.55 209.26 360.14 210.74 362.00 210.00
C 360.79 230.86 354.81 252.05 340.00 267.00
C 337.57 269.96 334.76 271.66 332.00 274.00
C 320.48 288.30 296.03 290.65 280.00 286.00
C 278.51 285.57 277.45 285.77 276.00 285.00
C 274.96 287.20 272.89 286.90 271.00 288.00
C 262.58 295.33 253.73 297.83 246.25 306.25 C 238.77 314.66 234.92 319.78 229.00 328.00
C 231.43 337.68 231.48 349.79 234.98 359.02 C 238.48 368.26 238.94 377.18 243.33 385.67 C 247.72 394.17 248.63 401.80 253.97 410.03 C 259.32 418.25 259.20 426.73 267.25 433.75 C 275.30 440.76 267.99 453.01 259.75 444.25 C 251.52 435.48 251.00 429.89 245.74 421.26 C 240.49 412.62 238.02 404.96 234.08 395.92 C 230.13 386.89 227.32 377.56 225.01 367.99 C 222.70 358.42 221.38 348.24 214.00 341.00
C 210.28 337.20 203.41 332.56 198.75 329.25 C 194.10 325.93 187.13 320.19 182.00 319.00
C 180.74 318.71 179.26 319.31 178.00 319.00
C 177.46 318.87 176.47 318.26 176.00 318.00
C 174.03 317.82 171.39 318.07 170.00 318.00
C 153.77 317.14 139.62 312.18 128.00 303.00
C 124.78 300.46 122.83 298.33 120.00 295.00
C 119.04 293.87 118.77 293.15 118.00 292.00
C 117.31 290.97 116.65 290.09 116.00 289.00
C 107.03 273.85 100.95 255.90 101.00 238.00
C 119.55 235.01 138.28 239.59 154.00 249.00
C 155.36 249.83 156.73 251.12 158.00 252.00
C 159.59 252.15 158.94 252.39 160.00 253.00
C 163.98 255.27 166.31 258.56 169.00 262.00
C 179.69 269.36 182.56 287.09 184.00 299.00
C 184.61 304.03 185.60 311.94 186.00 316.00
C 191.81 315.54 198.28 322.45 203.25 324.75 C 208.21 327.06 214.66 332.94 218.00 335.00
C 213.12 323.40 216.47 307.71 215.00 295.00 C 213.53 282.29 214.56 265.93 215.00 253.00 C 215.44 240.07 217.35 230.36 218.99 217.99 C 220.63 205.62 222.63 193.56 227.00 182.00
C 224.07 184.24 210.70 182.06 205.75 181.80 C 200.81 181.55 190.38 176.16 186.00 173.00
C 182.59 170.54 179.60 166.65 177.00 163.00
C 175.28 160.60 171.57 155.47 170.23 152.77 C 168.89 150.07 163.55 144.43 166.00 142.00
C 167.83 140.19 168.50 141.85 170.00 142.00
C 175.24 141.65 188.41 147.02 192.00 144.00
C 191.84 143.56 192.00 143.00 192.00 143.00
C 180.04 124.02 185.62 98.57 172.00 80.00
C 179.41 76.32 187.69 73.77 196.00 76.00
C 194.67 65.22 197.92 55.84 203.00 47.00
C 206.27 41.31 209.96 37.56 215.00 34.00
C 220.62 30.02 226.63 26.20 234.01 26.01 C 241.39 25.81 251.39 25.30 257.68 29.32 C 263.97 33.35 268.58 37.49 276.00 38.00 C 283.42 38.51 289.20 45.10 297.00 44.00 C 304.80 42.90 311.61 48.03 317.00 52.00 Z"/>
</g>
<g fill="#AB0609" fill-opacity="0.97" stroke="None">
<path d="
M 215.00 34.00 
C 213.20 36.10 208.97 41.85 206.00 45.00
C 200.99 60.04 213.26 80.75 224.00 91.00
C 215.16 75.08 226.48 48.97 247.00 52.00
C 243.65 58.13 241.18 64.66 242.00 72.00
C 254.03 50.92 295.05 60.43 285.00 88.00
C 291.40 85.52 292.32 85.53 296.92 78.92 C 301.52 72.31 304.84 79.19 304.00 86.00 C 303.16 92.81 305.07 99.50 300.25 104.25 C 295.42 108.99 294.91 112.86 288.00 114.00
C 305.48 118.37 319.63 102.96 333.00 94.00
C 332.84 90.32 333.79 84.54 334.00 81.00
C 332.86 73.05 330.70 67.38 326.00 61.00
C 324.05 59.33 318.56 53.82 317.00 52.00
C 311.61 48.03 304.80 42.90 297.00 44.00 C 289.20 45.10 283.42 38.51 276.00 38.00 C 268.58 37.49 263.97 33.35 257.68 29.32 C 251.39 25.30 241.39 25.81 234.01 26.01 C 226.63 26.20 220.62 30.02 215.00 34.00 Z"/>
</g>
<g fill="#942125" fill-opacity="0.31" stroke="None">
<path d="
M 203.00 47.00 
C 203.78 46.31 205.07 45.98 206.00 45.00
C 208.97 41.85 213.20 36.10 215.00 34.00
C 209.96 37.56 206.27 41.31 203.00 47.00 Z"/>
</g>
<g fill="#F02A32" fill-opacity="0.98" stroke="None">
<path d="
M 203.00 47.00 
C 197.92 55.84 194.67 65.22 196.00 76.00
C 197.24 76.14 196.58 73.77 198.00 74.00
C 202.65 98.37 234.20 102.90 244.00 124.00
C 235.48 128.46 228.07 136.42 226.00 146.00
C 244.41 107.21 295.03 142.44 321.00 119.00
C 323.38 119.39 319.94 121.67 322.00 122.00
C 322.35 122.48 323.50 122.78 324.00 123.00
C 324.68 122.29 325.25 115.76 328.08 114.08 C 330.90 112.39 331.16 106.64 332.00 104.00
C 332.04 103.67 330.70 102.23 331.01 100.99 C 331.33 99.74 333.41 100.21 333.00 101.00
C 333.33 99.65 333.73 97.85 334.00 96.00
C 333.79 95.33 333.05 95.17 333.00 94.00
C 319.63 102.96 305.48 118.37 288.00 114.00
C 294.91 112.86 295.42 108.99 300.25 104.25 C 305.07 99.50 303.16 92.81 304.00 86.00 C 304.84 79.19 301.52 72.31 296.92 78.92 C 292.32 85.53 291.40 85.52 285.00 88.00
C 295.05 60.43 254.03 50.92 242.00 72.00
C 241.18 64.66 243.65 58.13 247.00 52.00
C 226.48 48.97 215.16 75.08 224.00 91.00
C 213.26 80.75 200.99 60.04 206.00 45.00
C 205.07 45.98 203.78 46.31 203.00 47.00
M 277.00 92.00 
C 272.92 91.11 269.17 87.94 265.00 90.00
C 271.43 95.11 279.08 93.07 287.00 95.00 C 294.92 96.93 286.69 106.34 281.30 109.30 C 275.92 112.27 268.67 115.06 262.32 117.32 C 255.97 119.58 246.85 122.79 244.23 114.77 C 241.61 106.75 235.12 106.64 233.08 98.92 C 231.04 91.20 229.61 82.57 233.00 75.00
C 244.61 77.47 253.46 91.18 266.00 89.00
C 262.14 85.14 256.06 84.96 252.00 81.00
C 255.25 73.94 262.18 65.20 270.25 69.75 C 278.31 74.31 281.75 83.60 277.00 92.00 Z"/>
</g>
<g fill="#870F11" fill-opacity="0.37" stroke="None">
<path d="
M 326.00 61.00 
C 323.24 57.24 320.78 54.78 317.00 52.00
C 318.56 53.82 324.05 59.33 326.00 61.00 Z"/>
</g>
<g fill="#C40A10" fill-opacity="1.00" stroke="None">
<path d="
M 277.00 92.00 
C 281.75 83.60 278.31 74.31 270.25 69.75 C 262.18 65.20 255.25 73.94 252.00 81.00
C 256.06 84.96 262.14 85.14 266.00 89.00
C 253.46 91.18 244.61 77.47 233.00 75.00
C 229.61 82.57 231.04 91.20 233.08 98.92 C 235.12 106.64 241.61 106.75 244.23 114.77 C 246.85 122.79 255.97 119.58 262.32 117.32 C 268.67 115.06 275.92 112.27 281.30 109.30 C 286.69 106.34 294.92 96.93 287.00 95.00 C 279.08 93.07 271.43 95.11 265.00 90.00
C 269.17 87.94 272.92 91.11 277.00 92.00 Z"/>
</g>
<g fill="#C00B10" fill-opacity="0.98" stroke="None">
<path d="
M 196.00 76.00 
C 187.69 73.77 179.41 76.32 172.00 80.00
C 185.62 98.57 180.04 124.02 192.00 143.00
C 193.90 143.79 194.76 145.67 196.00 147.00
C 206.77 158.54 212.63 165.70 227.68 172.32 C 242.72 178.95 260.40 177.77 277.00 176.00
C 278.96 175.79 280.27 176.04 282.00 175.00
C 282.73 172.08 289.29 171.53 291.00 171.00
C 294.45 169.92 296.37 168.26 299.00 166.00
C 299.28 165.63 299.25 165.41 300.25 163.25 C 301.25 161.08 304.02 162.55 303.00 163.00
C 309.88 157.36 313.87 152.08 321.92 147.92 C 329.97 143.75 341.03 143.47 334.00 132.00
C 333.47 131.42 329.45 128.35 328.00 126.00
C 327.80 125.68 327.22 125.26 327.00 125.00
C 325.35 125.10 323.55 123.96 322.00 122.00
C 319.94 121.67 323.38 119.39 321.00 119.00
C 295.03 142.44 244.41 107.21 226.00 146.00
C 228.07 136.42 235.48 128.46 244.00 124.00
C 234.20 102.90 202.65 98.37 198.00 74.00
C 196.58 73.77 197.24 76.14 196.00 76.00 Z"/>
</g>
<g fill="#891C1D" fill-opacity="0.38" stroke="None">
<path d="
M 333.00 94.00 
C 333.05 95.17 333.79 95.33 334.00 96.00
C 334.70 91.20 334.70 85.87 334.00 81.00
C 333.79 84.54 332.84 90.32 333.00 94.00 Z"/>
</g>
<g fill="#C3373B" fill-opacity="0.50" stroke="None">
<path d="
M 332.00 104.00 
C 332.25 103.21 332.72 102.14 333.00 101.00
C 333.41 100.21 331.33 99.74 331.01 100.99 C 330.70 102.23 332.04 103.67 332.00 104.00 Z"/>
</g>
<g fill="#991D20" fill-opacity="0.38" stroke="None">
<path d="
M 327.00 125.00 
C 325.78 123.57 325.66 123.75 324.00 123.00
C 323.50 122.78 322.35 122.48 322.00 122.00
C 323.55 123.96 325.35 125.10 327.00 125.00 Z"/>
</g>
<g fill="#9B1629" fill-opacity="0.27" stroke="None">
<path d="
M 334.00 132.00 
C 332.16 128.99 331.37 127.58 328.00 126.00
C 329.45 128.35 333.47 131.42 334.00 132.00 Z"/>
</g>
<g fill="#396239" fill-opacity="0.31" stroke="None">
<path d="
M 166.00 142.00 
C 167.13 144.06 169.29 142.05 170.00 142.00
C 168.50 141.85 167.83 140.19 166.00 142.00 Z"/>
</g>
<g fill="#2D6B2B" fill-opacity="0.91" stroke="None">
<path d="
M 177.00 163.00 
C 177.43 163.38 180.18 165.49 182.25 166.75 C 184.32 168.01 185.58 172.53 186.00 173.00
C 190.38 176.16 200.81 181.55 205.75 181.80 C 210.70 182.06 224.07 184.24 227.00 182.00
C 227.39 180.97 228.95 176.48 230.00 176.00
C 226.28 174.59 221.74 172.06 218.00 170.00
C 214.78 168.23 212.59 166.42 210.00 164.00
C 204.86 159.20 200.66 153.99 196.00 149.00
C 194.35 147.23 192.89 146.45 192.00 144.00
C 188.41 147.02 175.24 141.65 170.00 142.00
C 169.29 142.05 167.13 144.06 166.00 142.00
C 163.55 144.43 168.89 150.07 170.23 152.77 C 171.57 155.47 175.28 160.60 177.00 163.00 Z"/>
</g>
<g fill="#78331D" fill-opacity="0.21" stroke="None">
<path d="
M 192.00 144.00 
C 192.89 146.45 194.35 147.23 196.00 149.00
C 195.85 148.55 196.15 147.45 196.00 147.00
C 194.76 145.67 193.90 143.79 192.00 143.00
C 192.00 143.00 191.84 143.56 192.00 144.00 Z"/>
</g>
<g fill="#802D16" fill-opacity="1.00" stroke="None">
<path d="
M 196.00 149.00 
C 200.66 153.99 204.86 159.20 210.00 164.00
C 212.64 165.97 215.48 168.25 218.00 170.00
C 221.74 172.06 226.28 174.59 230.00 176.00
C 232.34 176.89 235.49 177.44 238.00 178.00
C 248.01 180.22 258.71 180.64 269.00 179.00
C 271.75 178.56 274.22 178.41 277.00 178.00
C 277.20 177.90 276.76 176.18 277.00 176.00
C 260.40 177.77 242.72 178.95 227.68 172.32 C 212.63 165.70 206.77 158.54 196.00 147.00
C 196.15 147.45 195.85 148.55 196.00 149.00 Z"/>
</g>
<g fill="#921615" fill-opacity="0.35" stroke="None">
<path d="
M 299.00 166.00 
C 300.18 164.99 301.75 164.02 303.00 163.00
C 304.02 162.55 301.25 161.08 300.25 163.25 C 299.25 165.41 299.28 165.63 299.00 166.00 Z"/>
</g>
<g fill="#36663D" fill-opacity="0.22" stroke="None">
<path d="
M 177.00 163.00 
C 179.60 166.65 182.59 170.54 186.00 173.00
C 185.58 172.53 184.32 168.01 182.25 166.75 C 180.18 165.49 177.43 163.38 177.00 163.00 Z"/>
</g>
<g fill="#64451F" fill-opacity="1.00" stroke="None">
<path d="
M 218.00 170.00 
C 215.48 168.25 212.64 165.97 210.00 164.00
C 212.59 166.42 214.78 168.23 218.00 170.00 Z"/>
</g>
<g fill="#8F1815" fill-opacity="0.37" stroke="None">
<path d="
M 282.00 175.00 
C 282.37 174.78 283.00 175.00 283.00 175.00
C 286.96 174.92 289.23 172.08 291.00 171.00
C 289.29 171.53 282.73 172.08 282.00 175.00 Z"/>
</g>
<g fill="#71341D" fill-opacity="0.15" stroke="None">
<path d="
M 277.00 176.00 
C 276.76 176.18 277.20 177.90 277.00 178.00
C 278.62 177.76 281.68 178.12 283.00 177.00
C 282.97 176.91 284.36 175.85 283.00 175.00
C 283.00 175.00 282.37 174.78 282.00 175.00
C 280.27 176.04 278.96 175.79 277.00 176.00 Z"/>
</g>
<g fill="#1F2B0F" fill-opacity="0.86" stroke="None">
<path d="
M 227.00 182.00 
C 222.63 193.56 220.63 205.62 218.99 217.99 C 217.35 230.36 215.44 240.07 215.00 253.00 C 214.56 265.93 213.53 282.29 215.00 295.00 C 216.47 307.71 213.12 323.40 218.00 335.00
C 219.44 335.89 221.01 336.82 222.00 338.00
C 219.03 340.10 214.27 336.88 214.00 341.00
C 221.38 348.24 222.70 358.42 225.01 367.99 C 227.32 377.56 230.13 386.89 234.08 395.92 C 238.02 404.96 240.49 412.62 245.74 421.26 C 251.00 429.89 251.52 435.48 259.75 444.25 C 267.99 453.01 275.30 440.76 267.25 433.75 C 259.20 426.73 259.32 418.25 253.97 410.03 C 248.63 401.80 247.72 394.17 243.33 385.67 C 238.94 377.18 238.48 368.26 234.98 359.02 C 231.48 349.79 231.43 337.68 229.00 328.00
C 234.92 319.78 238.77 314.66 246.25 306.25 C 253.73 297.83 262.58 295.33 271.00 288.00
C 272.61 286.60 272.49 285.21 275.00 285.00
C 274.13 284.42 274.22 284.33 273.00 284.00
C 272.84 283.96 270.80 282.97 271.00 283.00
C 254.31 288.05 241.66 300.36 228.00 311.00
C 221.09 272.66 232.17 233.49 235.00 195.00
C 235.11 193.51 235.32 192.86 236.00 191.00
C 236.70 189.09 237.83 185.95 238.00 184.00
C 238.13 182.54 236.52 181.22 238.00 179.00
C 238.23 178.65 238.00 178.00 238.00 178.00
C 235.49 177.44 232.34 176.89 230.00 176.00
C 228.95 176.48 227.39 180.97 227.00 182.00 Z"/>
</g>
<g fill="#2B6B2C" fill-opacity="0.89" stroke="None">
<path d="
M 277.00 178.00 
C 274.22 178.41 271.75 178.56 269.00 179.00
C 258.62 181.86 248.68 180.45 238.00 179.00
C 236.52 181.22 238.13 182.54 238.00 184.00
C 237.59 182.87 243.24 189.93 246.25 192.75 C 249.26 195.57 255.00 198.60 259.00 200.00
C 259.67 200.23 261.69 201.48 263.00 202.00
C 278.06 204.34 295.89 201.69 305.00 191.00
C 302.73 186.91 296.68 187.67 294.30 184.70 C 291.91 181.74 284.26 180.59 283.00 177.00
C 281.68 178.12 278.62 177.76 277.00 178.00 Z"/>
</g>
<g fill="#555627" fill-opacity="1.00" stroke="None">
<path d="
M 238.00 179.00 
C 248.68 180.45 258.62 181.86 269.00 179.00
C 258.71 180.64 248.01 180.22 238.00 178.00
C 238.00 178.00 238.23 178.65 238.00 179.00 Z"/>
</g>
<g fill="#10410C" fill-opacity="0.17" stroke="None">
<path d="
M 235.00 195.00 
C 235.50 193.40 235.63 193.88 236.00 191.00
C 235.32 192.86 235.11 193.51 235.00 195.00 Z"/>
</g>
<g fill="#486B56" fill-opacity="0.07" stroke="None">
<path d="
M 259.00 200.00 
C 260.68 200.89 261.70 201.74 263.00 202.00
C 261.69 201.48 259.67 200.23 259.00 200.00 Z"/>
</g>
<g fill="#336036" fill-opacity="0.42" stroke="None">
<path d="
M 341.00 210.00 
C 343.15 210.21 346.23 210.15 349.00 211.00 C 351.77 211.85 356.49 209.02 357.00 209.00
C 351.65 208.11 346.00 209.56 341.00 210.00 Z"/>
</g>
<g fill="#286C2B" fill-opacity="0.95" stroke="None">
<path d="
M 341.00 210.00 
C 313.14 212.45 293.53 223.63 281.00 247.00
C 280.64 247.99 280.23 249.36 279.00 251.00
C 274.28 257.29 273.77 266.19 273.00 274.00
C 273.14 275.80 274.40 278.45 274.00 281.00
C 286.83 257.85 313.96 242.37 336.00 231.00
C 314.71 244.87 295.69 263.54 277.00 282.00
C 276.98 284.04 282.17 284.32 280.00 286.00
C 296.03 290.65 320.48 288.30 332.00 274.00
C 334.38 271.04 338.40 268.20 340.00 267.00
C 354.81 252.05 360.79 230.86 362.00 210.00
C 360.14 210.74 358.55 209.26 357.00 209.00
C 356.49 209.02 351.77 211.85 349.00 211.00 C 346.23 210.15 343.15 210.21 341.00 210.00 Z"/>
</g>
<g fill="#134E13" fill-opacity="0.99" stroke="None">
<path d="
M 274.00 281.00 
C 273.96 281.26 272.97 283.95 273.00 284.00
C 274.22 284.33 274.13 284.42 275.00 285.00
C 275.50 284.96 276.00 285.00 276.00 285.00
C 277.45 285.77 278.51 285.57 280.00 286.00
C 282.17 284.32 276.98 284.04 277.00 282.00
C 295.69 263.54 314.71 244.87 336.00 231.00
C 313.96 242.37 286.83 257.85 274.00 281.00 Z"/>
</g>
<g fill="#286C2B" fill-opacity="0.95" stroke="None">
<path d="
M 116.00 289.00 
C 116.51 289.53 117.54 290.62 118.00 292.00
C 118.77 293.15 119.04 293.87 120.00 295.00
C 122.18 296.59 126.49 300.99 128.00 303.00
C 139.62 312.18 153.77 317.14 170.00 318.00
C 172.74 317.87 173.50 316.62 176.00 318.00
C 176.47 318.26 177.46 318.87 178.00 319.00
C 177.94 319.02 180.23 315.63 180.00 315.00
C 165.33 295.90 147.86 277.21 129.00 262.00
C 151.72 273.11 173.66 293.42 183.00 317.00
C 183.40 316.80 184.00 317.00 184.00 317.00
C 181.32 311.72 183.62 303.93 184.00 299.00
C 182.56 287.09 179.69 269.36 169.00 262.00
C 166.25 260.11 161.64 255.88 160.00 253.00
C 158.94 252.39 159.59 252.15 158.00 252.00
C 155.84 251.79 154.64 249.59 154.00 249.00
C 138.28 239.59 119.55 235.01 101.00 238.00
C 100.95 255.90 107.03 273.85 116.00 289.00 Z"/>
</g>
<g fill="#336332" fill-opacity="0.35" stroke="None">
<path d="
M 279.00 251.00 
C 280.23 249.36 280.64 247.99 281.00 247.00
C 280.41 248.11 279.62 249.78 279.00 251.00 Z"/>
</g>
<g fill="#2B612E" fill-opacity="0.34" stroke="None">
<path d="
M 158.00 252.00 
C 156.73 251.12 155.36 249.83 154.00 249.00
C 154.64 249.59 155.84 251.79 158.00 252.00 Z"/>
</g>
<g fill="#316132" fill-opacity="0.35" stroke="None">
<path d="
M 169.00 262.00 
C 166.31 258.56 163.98 255.27 160.00 253.00
C 161.64 255.88 166.25 260.11 169.00 262.00 Z"/>
</g>
<g fill="#105413" fill-opacity="0.99" stroke="None">
<path d="
M 178.00 319.00 
C 179.26 319.31 180.74 318.71 182.00 319.00
C 182.41 318.78 182.72 317.14 183.00 317.00
C 173.66 293.42 151.72 273.11 129.00 262.00
C 147.86 277.21 165.33 295.90 180.00 315.00
C 180.23 315.63 177.94 319.02 178.00 319.00 Z"/>
</g>
<g fill="#2C602D" fill-opacity="0.30" stroke="None">
<path d="
M 332.00 274.00 
C 334.76 271.66 337.57 269.96 340.00 267.00
C 338.40 268.20 334.38 271.04 332.00 274.00 Z"/>
</g>
<g fill="#29562C" fill-opacity="0.30" stroke="None">
<path d="
M 271.00 283.00 
C 270.80 282.97 272.84 283.96 273.00 284.00
C 272.97 283.95 273.96 281.26 274.00 281.00
C 274.40 278.45 273.14 275.80 273.00 274.00
C 272.79 276.12 270.36 280.93 271.00 283.00 Z"/>
</g>
<g fill="#173E11" fill-opacity="0.24" stroke="None">
<path d="
M 271.00 288.00 
C 272.89 286.90 274.96 287.20 276.00 285.00
C 276.00 285.00 275.50 284.96 275.00 285.00
C 272.49 285.21 272.61 286.60 271.00 288.00 Z"/>
</g>
<g fill="#335D35" fill-opacity="0.31" stroke="None">
<path d="
M 116.00 289.00 
C 116.65 290.09 117.31 290.97 118.00 292.00
C 117.54 290.62 116.51 289.53 116.00 289.00 Z"/>
</g>
<g fill="#305A33" fill-opacity="0.25" stroke="None">
<path d="
M 120.00 295.00 
C 122.83 298.33 124.78 300.46 128.00 303.00
C 126.49 300.99 122.18 296.59 120.00 295.00 Z"/>
</g>
<g fill="#2F5C2E" fill-opacity="0.31" stroke="None">
<path d="
M 184.00 317.00 
C 185.19 317.08 185.49 316.04 186.00 316.00
C 185.60 311.94 184.61 304.03 184.00 299.00
C 183.62 303.93 181.32 311.72 184.00 317.00 Z"/>
</g>
<g fill="#21230E" fill-opacity="0.77" stroke="None">
<path d="
M 184.00 317.00 
C 184.00 317.00 183.40 316.80 183.00 317.00
C 182.72 317.14 182.41 318.78 182.00 319.00
C 187.13 320.19 194.10 325.93 198.75 329.25 C 203.41 332.56 210.28 337.20 214.00 341.00
C 214.27 336.88 219.03 340.10 222.00 338.00
C 221.01 336.82 219.44 335.89 218.00 335.00
C 214.66 332.94 208.21 327.06 203.25 324.75 C 198.28 322.45 191.81 315.54 186.00 316.00
C 185.49 316.04 185.19 317.08 184.00 317.00 Z"/>
</g>
<g fill="#2A662B" fill-opacity="0.33" stroke="None">
<path d="
M 170.00 318.00 
C 171.39 318.07 174.03 317.82 176.00 318.00
C 173.50 316.62 172.74 317.87 170.00 318.00 Z"/>
</g>
</svg>